solid OpenSCAD_Model
  facet normal 0 1 0
    outer loop
      vertex 24.6667 2 0
      vertex 35 2 70
      vertex 35 2 0
    endloop
  endfacet
  facet normal 0 1 0
    outer loop
      vertex 35 2 70
      vertex 24.6667 2 0
      vertex 0 2 70
    endloop
  endfacet
  facet normal -0.943156 0 -0.332351
    outer loop
      vertex 24.6667 0 0
      vertex 0 2 70
      vertex 24.6667 2 0
    endloop
  endfacet
  facet normal -0.943156 -0 -0.332351
    outer loop
      vertex 0 2 70
      vertex 24.6667 0 0
      vertex 0 0 70
    endloop
  endfacet
  facet normal 0 0 -1
    outer loop
      vertex 37 0 0
      vertex 35 2 0
      vertex 37 12.3333 0
    endloop
  endfacet
  facet normal 0 0 -1
    outer loop
      vertex 24.6667 0 0
      vertex 35 2 0
      vertex 37 0 0
    endloop
  endfacet
  facet normal -0 0 -1
    outer loop
      vertex 35 2 0
      vertex 24.6667 0 0
      vertex 24.6667 2 0
    endloop
  endfacet
  facet normal -0 0 -1
    outer loop
      vertex 37 12.3333 0
      vertex 35 2 0
      vertex 35 12.3333 0
    endloop
  endfacet
  facet normal 0 -1 0
    outer loop
      vertex 0 0 70
      vertex 37 0 87
      vertex 0 0 87
    endloop
  endfacet
  facet normal 0 -1 0
    outer loop
      vertex 37 0 0
      vertex 0 0 70
      vertex 24.6667 0 0
    endloop
  endfacet
  facet normal 0 -1 0
    outer loop
      vertex 0 0 70
      vertex 37 0 0
      vertex 37 0 87
    endloop
  endfacet
  facet normal 0 0 -1
    outer loop
      vertex 0 2 70
      vertex 35 37 70
      vertex 35 2 70
    endloop
  endfacet
  facet normal -0 0 -1
    outer loop
      vertex 35 37 70
      vertex 0 2 70
      vertex 35 130 70
    endloop
  endfacet
  facet normal 0 0 -1
    outer loop
      vertex 0 165 70
      vertex 35 130 70
      vertex 0 2 70
    endloop
  endfacet
  facet normal 0 0 -1
    outer loop
      vertex 35 130 70
      vertex 0 165 70
      vertex 35 165 70
    endloop
  endfacet
  facet normal 0 0 -1
    outer loop
      vertex 35 37 70
      vertex 37 130 70
      vertex 37 37 70
    endloop
  endfacet
  facet normal -0 0 -1
    outer loop
      vertex 37 130 70
      vertex 35 37 70
      vertex 35 130 70
    endloop
  endfacet
  facet normal 1 -0 0
    outer loop
      vertex 37 130 70
      vertex 37 167 0
      vertex 37 167 87
    endloop
  endfacet
  facet normal 1 0 0
    outer loop
      vertex 37 167 0
      vertex 37 130 70
      vertex 37 154.667 0
    endloop
  endfacet
  facet normal 1 0 0
    outer loop
      vertex 37 167 87
      vertex 37 37 70
      vertex 37 130 70
    endloop
  endfacet
  facet normal 1 -0 0
    outer loop
      vertex 37 0 87
      vertex 37 37 70
      vertex 37 167 87
    endloop
  endfacet
  facet normal 1 0 0
    outer loop
      vertex 37 0 0
      vertex 37 37 70
      vertex 37 0 87
    endloop
  endfacet
  facet normal 1 0 0
    outer loop
      vertex 37 37 70
      vertex 37 0 0
      vertex 37 12.3333 0
    endloop
  endfacet
  facet normal 0 0.943156 -0.332351
    outer loop
      vertex 37 12.3333 0
      vertex 35 37 70
      vertex 37 37 70
    endloop
  endfacet
  facet normal 0 0.943156 -0.332351
    outer loop
      vertex 35 37 70
      vertex 37 12.3333 0
      vertex 35 12.3333 0
    endloop
  endfacet
  facet normal -1 0 0
    outer loop
      vertex 35 2 70
      vertex 35 12.3333 0
      vertex 35 2 0
    endloop
  endfacet
  facet normal -1 0 0
    outer loop
      vertex 35 12.3333 0
      vertex 35 2 70
      vertex 35 37 70
    endloop
  endfacet
  facet normal -1 0 0
    outer loop
      vertex 35 154.667 0
      vertex 35 165 70
      vertex 35 165 0
    endloop
  endfacet
  facet normal -1 -0 0
    outer loop
      vertex 35 165 70
      vertex 35 154.667 0
      vertex 35 130 70
    endloop
  endfacet
  facet normal 0 -0.943155 -0.332354
    outer loop
      vertex 35 154.667 0
      vertex 37 130 70
      vertex 35 130 70
    endloop
  endfacet
  facet normal 0 -0.943155 -0.332354
    outer loop
      vertex 37 130 70
      vertex 35 154.667 0
      vertex 37 154.667 0
    endloop
  endfacet
  facet normal 0 0 -1
    outer loop
      vertex 35 165 0
      vertex 37 154.667 0
      vertex 35 154.667 0
    endloop
  endfacet
  facet normal 0 0 -1
    outer loop
      vertex 37 154.667 0
      vertex 35 165 0
      vertex 37 167 0
    endloop
  endfacet
  facet normal 0 0 -1
    outer loop
      vertex 24.6667 167 0
      vertex 35 165 0
      vertex 24.6667 165 0
    endloop
  endfacet
  facet normal 0 0 -1
    outer loop
      vertex 35 165 0
      vertex 24.6667 167 0
      vertex 37 167 0
    endloop
  endfacet
  facet normal 0 1 0
    outer loop
      vertex 37 167 87
      vertex 0 167 70
      vertex 0 167 87
    endloop
  endfacet
  facet normal 0 1 -0
    outer loop
      vertex 37 167 0
      vertex 0 167 70
      vertex 37 167 87
    endloop
  endfacet
  facet normal 0 1 0
    outer loop
      vertex 0 167 70
      vertex 37 167 0
      vertex 24.6667 167 0
    endloop
  endfacet
  facet normal -0.943156 0 -0.332351
    outer loop
      vertex 24.6667 165 0
      vertex 0 167 70
      vertex 24.6667 167 0
    endloop
  endfacet
  facet normal -0.943156 -0 -0.332351
    outer loop
      vertex 0 167 70
      vertex 24.6667 165 0
      vertex 0 165 70
    endloop
  endfacet
  facet normal 0 -1 0
    outer loop
      vertex 24.6667 165 0
      vertex 35 165 70
      vertex 0 165 70
    endloop
  endfacet
  facet normal 0 -1 -0
    outer loop
      vertex 35 165 70
      vertex 24.6667 165 0
      vertex 35 165 0
    endloop
  endfacet
  facet normal -1 0 0
    outer loop
      vertex 0 2 70
      vertex 0 165 72
      vertex 0 165 70
    endloop
  endfacet
  facet normal -1 0 0
    outer loop
      vertex 0 2 70
      vertex 0 2 72
      vertex 0 165 72
    endloop
  endfacet
  facet normal -1 0 0
    outer loop
      vertex 0 0 70
      vertex 0 2 72
      vertex 0 2 70
    endloop
  endfacet
  facet normal -1 0 0
    outer loop
      vertex 0 0 87
      vertex 0 2 72
      vertex 0 0 70
    endloop
  endfacet
  facet normal -1 0 0
    outer loop
      vertex 0 2 72
      vertex 0 0 87
      vertex 0 2 87
    endloop
  endfacet
  facet normal -1 0 0
    outer loop
      vertex 0 165 72
      vertex 0 167 70
      vertex 0 165 70
    endloop
  endfacet
  facet normal -1 0 0
    outer loop
      vertex 0 167 70
      vertex 0 165 72
      vertex 0 167 87
    endloop
  endfacet
  facet normal -1 -0 0
    outer loop
      vertex 0 167 87
      vertex 0 165 72
      vertex 0 165 87
    endloop
  endfacet
  facet normal 0 0 1
    outer loop
      vertex 37 167 87
      vertex 35 165 87
      vertex 37 0 87
    endloop
  endfacet
  facet normal -0 0 1
    outer loop
      vertex 0 167 87
      vertex 35 165 87
      vertex 37 167 87
    endloop
  endfacet
  facet normal 0 0 1
    outer loop
      vertex 35 165 87
      vertex 0 167 87
      vertex 0 165 87
    endloop
  endfacet
  facet normal -0 0 1
    outer loop
      vertex 35 2 87
      vertex 37 0 87
      vertex 35 165 87
    endloop
  endfacet
  facet normal 0 0 1
    outer loop
      vertex 0 0 87
      vertex 35 2 87
      vertex 0 2 87
    endloop
  endfacet
  facet normal 0 0 1
    outer loop
      vertex 35 2 87
      vertex 0 0 87
      vertex 37 0 87
    endloop
  endfacet
  facet normal -1 0 0
    outer loop
      vertex 35 2 72
      vertex 35 165 87
      vertex 35 165 72
    endloop
  endfacet
  facet normal -1 -0 0
    outer loop
      vertex 35 165 87
      vertex 35 2 72
      vertex 35 2 87
    endloop
  endfacet
  facet normal 0 -1 0
    outer loop
      vertex 0 165 72
      vertex 35 165 87
      vertex 0 165 87
    endloop
  endfacet
  facet normal 0 -1 -0
    outer loop
      vertex 35 165 87
      vertex 0 165 72
      vertex 35 165 72
    endloop
  endfacet
  facet normal -0 0 1
    outer loop
      vertex 0 165 72
      vertex 35 2 72
      vertex 35 165 72
    endloop
  endfacet
  facet normal 0 0 1
    outer loop
      vertex 35 2 72
      vertex 0 165 72
      vertex 0 2 72
    endloop
  endfacet
  facet normal 0 1 -0
    outer loop
      vertex 35 2 72
      vertex 0 2 87
      vertex 35 2 87
    endloop
  endfacet
  facet normal 0 1 0
    outer loop
      vertex 0 2 87
      vertex 35 2 72
      vertex 0 2 72
    endloop
  endfacet
endsolid OpenSCAD_Model
